# xmcd CD database file
#
# Track frame offsets:
#	150
#	9354
#	23356
#	45877
#	59107
#	71582
#	90422
#	111084
#	142089
#	160869
#	196857
#
# Disc length: 2896 seconds
#
# Revision: 0
# Processed by: cddbd v1.4PL0 Copyright (c) Steve Scherf et al.
# Submitted via: CDex 1.50
#
DISCID=840b4e0b
DTITLE=Basic Station - Your name is my guitar
DYEAR=2002
DGENRE=Blues
TTITLE0=Your name
TTITLE1=Straight Walking Man
TTITLE2=Dream Castle
TTITLE3=Walk in the hills
TTITLE4=Early in the morning
TTITLE5=Come with me
TTITLE6=Studio
TTITLE7=Schoonmoeder Blues
TTITLE8=Darling
TTITLE9=Hardway back
TTITLE10=Don't really wanna
EXTD=YEAR: 2002
EXTT0=
EXTT1=
EXTT2=
EXTT3=
EXTT4=
EXTT5=
EXTT6=
EXTT7=
EXTT8=
EXTT9=
EXTT10=
PLAYORDER=
